<svg width="95" height="25" viewBox="0 0 95 25" fill="none" xmlns="http://www.w3.org/2000/svg">
<path d="M24.8566 18.6033V0.0267141H27.7428V7.35037C28.6517 5.99663 30.0149 5.31952 31.8323 5.31904C33.3825 5.31904 34.5809 5.77786 35.4274 6.69548C36.2739 7.61312 36.6973 8.89167 36.6974 10.5311V18.6033H33.8111V10.9321C33.8111 8.81181 32.8666 7.75156 30.9777 7.75128C30.033 7.75128 29.2579 8.03639 28.6524 8.60661C28.0469 9.17683 27.7438 9.97871 27.7433 11.0123V18.6031L24.8566 18.6033Z" fill="#323232"/>
<path d="M50.3377 17C49.0547 18.283 47.4422 18.9245 45.4999 18.9245C43.5577 18.9245 41.9406 18.283 40.6485 17C39.3565 15.7169 38.7106 14.0862 38.7107 12.1078C38.7108 10.1296 39.3567 8.50369 40.6485 7.2302C41.9404 5.9564 43.5575 5.31937 45.4999 5.31907C47.4423 5.31878 49.0549 5.95583 50.3377 7.2302C51.6209 8.50446 52.2624 10.1304 52.2623 12.1078C52.2622 14.0854 51.6207 15.7161 50.3377 17ZM42.7602 15.3693C43.4457 16.1712 44.359 16.5722 45.4999 16.5722C46.6409 16.5722 47.5541 16.1712 48.2396 15.3693C48.9253 14.5675 49.2683 13.4804 49.2686 12.1078C49.2686 10.7538 48.9212 9.67574 48.2263 8.87375C47.5314 8.07177 46.6226 7.67082 45.4999 7.67092C44.3593 7.67092 43.446 8.06739 42.7602 8.86033C42.0743 9.65328 41.7313 10.7356 41.7311 12.1073C41.7311 13.4804 42.0741 14.5677 42.7602 15.3693Z" fill="#323232"/>
<path d="M58.9432 18.924C56.2879 18.924 54.9602 17.4984 54.9602 14.6473V8.07209H52.9561V5.63987H55.0409L55.7092 1.81836H57.8739V5.63987H63.0326V8.07209H57.8741V14.5673C57.8741 15.7613 58.3107 16.3583 59.1838 16.3582C60.0032 16.3582 60.7427 15.6097 61.4023 14.1128L63.6476 15.2623C62.5425 17.7037 60.9744 18.9243 58.9432 18.924Z" fill="#323232"/>
<path d="M64.5755 24.5371C63.2925 24.5371 62.2322 24.1807 61.3948 23.4679L62.464 21.196C62.9809 21.8015 63.5422 22.1046 64.1479 22.1052C64.9497 22.1052 65.3506 21.5885 65.3506 20.555V5.63985H68.2368V20.6077C68.2368 21.9976 67.8938 23 67.2077 23.6146C66.5217 24.2294 65.6443 24.5368 64.5755 24.5371ZM66.794 3.44791C66.3195 3.46401 65.858 3.29099 65.511 2.96692C65.344 2.80961 65.2125 2.61865 65.125 2.40669C65.0375 2.19473 64.996 1.96659 65.0033 1.73738C64.9968 1.50629 65.0387 1.27641 65.1261 1.06241C65.2136 0.848397 65.3446 0.654957 65.511 0.494431C65.8599 0.176327 66.3151 0 66.7873 0C67.2594 0 67.7147 0.176327 68.0636 0.494431C68.2335 0.652962 68.3678 0.845721 68.4577 1.05998C68.5474 1.27423 68.5909 1.50512 68.5849 1.73738C68.5891 1.96544 68.5448 2.19179 68.4549 2.40144C68.365 2.61109 68.2317 2.79926 68.0636 2.95349C67.895 3.11543 67.696 3.24246 67.4781 3.3273C67.2603 3.41214 67.0278 3.45313 66.794 3.44791Z" fill="#323232"/>
<path d="M75.4059 18.9243C73.9267 18.9243 72.7282 18.5545 71.8108 17.8151C70.8933 17.0756 70.4346 16.0824 70.4344 14.8355C70.4344 13.6951 70.911 12.7282 71.8644 11.9348C72.8177 11.1414 74.016 10.7449 75.4593 10.7454C76.9384 10.7454 78.1858 11.2177 79.2014 12.1621V10.5849C79.2014 9.65866 78.9653 8.94144 78.493 8.43326C78.0207 7.9251 77.348 7.67116 76.4751 7.67145C74.711 7.67145 73.6151 8.57127 73.1874 10.3709L70.5411 9.8097C70.8971 8.41989 71.601 7.32404 72.6529 6.52215C73.7047 5.72025 75.0144 5.31932 76.5819 5.31932C78.2927 5.31932 79.6426 5.76928 80.6314 6.66921C81.6203 7.56913 82.1147 8.88323 82.1149 10.6115V18.6035H79.3083V16.9728C78.3636 18.2739 77.0628 18.9245 75.4059 18.9243ZM75.9398 16.7859C77.223 16.7859 78.3101 16.1445 79.2013 14.8616V14.4602C78.31 13.3911 77.2229 12.8565 75.9398 12.8566C75.1915 12.8566 74.5855 13.0394 74.1215 13.405C73.9022 13.5666 73.7247 13.7782 73.6039 14.0224C73.4829 14.2664 73.4222 14.5359 73.4265 14.8082C73.4194 15.0834 73.4776 15.3564 73.596 15.6049C73.7145 15.8533 73.8901 16.0704 74.1082 16.2382C74.5636 16.6035 75.1744 16.7861 75.9404 16.7859H75.9398Z" fill="#323232"/>
<path d="M84.9235 18.6033V5.63978H87.73V7.88497C88.4425 6.2457 89.672 5.426 91.4187 5.42591C92.4518 5.42591 93.3071 5.76446 93.9846 6.44158C94.6621 7.11869 95.0006 8.02746 94.9999 9.16791C94.9928 9.85047 94.8755 10.5275 94.6525 11.1726L92.0064 10.9053C92.0607 10.5511 92.0963 10.1942 92.1132 9.83621C92.1132 8.49979 91.5609 7.83153 90.4562 7.83144C89.7076 7.83144 89.0794 8.22791 88.5717 9.02085C88.0641 9.81379 87.8101 10.8608 87.8099 12.1617V18.6033H84.9235Z" fill="#323232"/>
<path d="M6.82968 7.62326C8.98079 6.42822 11.9269 4.79116 11.9269 0.0267141H8.35952C8.35952 2.69243 7.06173 3.41342 5.09722 4.50484C2.94612 5.70032 0 7.33667 0 12.1016H3.56738C3.56738 9.43568 4.86517 8.71469 6.82968 7.62326Z" fill="#FF3C00"/>
<path d="M13.0041 6.52841C13.0041 9.19427 11.7063 9.91525 9.74183 11.0065C7.5913 12.2016 4.64461 13.8384 4.64461 18.6032H8.21185C8.21185 15.9374 9.50964 15.2164 11.4741 14.125C13.6252 12.9299 16.5712 11.2933 16.5712 6.52841H13.0041Z" fill="#FF3C00"/>
</svg>
