<svg width="24" height="24" viewBox="0 0 24 24" fill="none" xmlns="http://www.w3.org/2000/svg">
<path d="M11.9617 3.66686C13.0671 3.67048 14.1608 3.8933 15.1795 4.32242C16.1982 4.75153 17.1217 5.37842 17.8966 6.1668H15.2949C15.0739 6.1668 14.862 6.2546 14.7057 6.41087C14.5494 6.56715 14.4616 6.77911 14.4616 7.00011C14.4616 7.22112 14.5494 7.43308 14.7057 7.58936C14.862 7.74563 15.0739 7.83343 15.2949 7.83343H18.7474C19.1577 7.83321 19.5512 7.6701 19.8413 7.37994C20.1315 7.08979 20.2946 6.69631 20.2948 6.28596V2.83354C20.2948 2.61254 20.207 2.40058 20.0508 2.2443C19.8945 2.08803 19.6825 2.00023 19.4615 2.00023C19.2405 2.00023 19.0285 2.08803 18.8723 2.2443C18.716 2.40058 18.6282 2.61254 18.6282 2.83354V4.56517C17.2509 3.32474 15.5554 2.49223 13.7317 2.16085C11.908 1.82947 10.0281 2.01232 8.30243 2.68892C6.57677 3.36552 5.07353 4.50915 3.96105 5.99174C2.84857 7.47433 2.17078 9.23735 2.00359 11.0834C1.99282 11.1994 2.00635 11.3164 2.0433 11.4269C2.08026 11.5375 2.13983 11.6391 2.21823 11.7253C2.29662 11.8116 2.39212 11.8805 2.49864 11.9278C2.60516 11.9751 2.72036 11.9997 2.8369 12C3.04072 12.0026 3.23817 11.929 3.3906 11.7937C3.54304 11.6584 3.63948 11.471 3.66105 11.2683C3.84656 9.19402 4.801 7.26403 6.33689 5.85751C7.87277 4.45098 9.87909 3.6696 11.9617 3.66686Z" fill="black"/>
<path d="M21.0872 12C20.8834 11.9974 20.6859 12.071 20.5335 12.2063C20.381 12.3416 20.2846 12.529 20.263 12.7317C20.1253 14.3176 19.5355 15.8308 18.5636 17.0917C17.5917 18.3526 16.2786 19.3082 14.7799 19.8453C13.2813 20.3823 11.6601 20.4782 10.1086 20.1216C8.55706 19.7649 7.14041 18.9707 6.0267 17.8332H8.6283C8.84931 17.8332 9.06127 17.7454 9.21754 17.5891C9.37382 17.4329 9.46162 17.2209 9.46162 16.9999C9.46162 16.7789 9.37382 16.5669 9.21754 16.4106C9.06127 16.2544 8.84931 16.1666 8.6283 16.1666H5.17588C4.97264 16.1665 4.77136 16.2064 4.58356 16.2841C4.39577 16.3619 4.22513 16.4759 4.08142 16.6196C3.9377 16.7633 3.82372 16.9339 3.74599 17.1217C3.66826 17.3095 3.62831 17.5108 3.62842 17.714V21.1665C3.62842 21.3875 3.71621 21.5994 3.87249 21.7557C4.02877 21.912 4.24072 21.9998 4.46173 21.9998C4.68274 21.9998 4.8947 21.912 5.05097 21.7557C5.20725 21.5994 5.29505 21.3875 5.29505 21.1665V19.4348C6.67237 20.6753 8.36782 21.5078 10.1915 21.8392C12.0152 22.1705 13.8952 21.9877 15.6208 21.3111C17.3465 20.6345 18.8497 19.4909 19.9622 18.0083C21.0747 16.5257 21.7525 14.7627 21.9197 12.9167C21.9304 12.8006 21.9169 12.6836 21.8799 12.5731C21.843 12.4625 21.7834 12.3609 21.705 12.2747C21.6266 12.1884 21.5311 12.1195 21.4246 12.0722C21.3181 12.0249 21.2037 12.0003 21.0872 12Z" fill="black"/>
</svg>
