<svg width="42" height="42" viewBox="0 0 42 42" fill="none" xmlns="http://www.w3.org/2000/svg">
<g clip-path="url(#clip0_13_3531)">
<path d="M28.5 23.8333H17.25C16.5596 23.8333 16 24.393 16 25.0833C16 25.7737 16.5596 26.3333 17.25 26.3333H28.5C29.1904 26.3333 29.75 25.7737 29.75 25.0833C29.75 24.393 29.1904 23.8333 28.5 23.8333Z" fill="#FEFFFF"/>
<path d="M17.25 20.5H34.75C35.4404 20.5 36 19.9404 36 19.25C36 18.5596 35.4404 18 34.75 18H17.25C16.5596 18 16 18.5596 16 19.25C16 19.9404 16.5596 20.5 17.25 20.5Z" fill="#FEFFFF"/>
<path d="M34.75 29.6666H17.25C16.5596 29.6666 16 30.2263 16 30.9166C16 31.607 16.5596 32.1666 17.25 32.1666H34.75C35.4404 32.1666 36 31.607 36 30.9166C36 30.2263 35.4404 29.6666 34.75 29.6666Z" fill="#FEFFFF"/>
<g clip-path="url(#clip1_13_3531)">
<path d="M28.5 23.8333H17.25C16.5596 23.8333 16 24.393 16 25.0833C16 25.7737 16.5596 26.3333 17.25 26.3333H28.5C29.1904 26.3333 29.75 25.7737 29.75 25.0833C29.75 24.393 29.1904 23.8333 28.5 23.8333Z" fill="#FEFFFF"/>
<path d="M17.25 20.5H34.75C35.4404 20.5 36 19.9404 36 19.25C36 18.5596 35.4404 18 34.75 18H17.25C16.5596 18 16 18.5596 16 19.25C16 19.9404 16.5596 20.5 17.25 20.5Z" fill="#FEFFFF"/>
<path d="M34.75 29.6666H17.25C16.5596 29.6666 16 30.2263 16 30.9166C16 31.607 16.5596 32.1666 17.25 32.1666H34.75C35.4404 32.1666 36 31.607 36 30.9166C36 30.2263 35.4404 29.6666 34.75 29.6666Z" fill="#FEFFFF"/>
<path d="M28.5 23.8333H17.25C16.5596 23.8333 16 24.393 16 25.0833C16 25.7737 16.5596 26.3333 17.25 26.3333H28.5C29.1904 26.3333 29.75 25.7737 29.75 25.0833C29.75 24.393 29.1904 23.8333 28.5 23.8333Z" fill="#FEFFFF"/>
<path d="M17.25 20.5H34.75C35.4404 20.5 36 19.9404 36 19.25C36 18.5596 35.4404 18 34.75 18H17.25C16.5596 18 16 18.5596 16 19.25C16 19.9404 16.5596 20.5 17.25 20.5Z" fill="#FEFFFF"/>
<path d="M34.75 29.6666H17.25C16.5596 29.6666 16 30.2263 16 30.9166C16 31.607 16.5596 32.1666 17.25 32.1666H34.75C35.4404 32.1666 36 31.607 36 30.9166C36 30.2263 35.4404 29.6666 34.75 29.6666Z" fill="#FEFFFF"/>
</g>
</g>
<rect width="42" height="42" rx="16" fill="#171725"/>
<path d="M23.7273 20H12.2727C11.5698 20 11 20.4477 11 21C11 21.5523 11.5698 22 12.2727 22H23.7273C24.4302 22 25 21.5523 25 21C25 20.4477 24.4302 20 23.7273 20Z" fill="#FEFFFF"/>
<path d="M12.25 16H29.75C30.4404 16 31 15.5523 31 15C31 14.4477 30.4404 14 29.75 14H12.25C11.5596 14 11 14.4477 11 15C11 15.5523 11.5596 16 12.25 16Z" fill="#FEFFFF"/>
<path d="M29.75 26H12.25C11.5596 26 11 26.4477 11 27C11 27.5523 11.5596 28 12.25 28H29.75C30.4404 28 31 27.5523 31 27C31 26.4477 30.4404 26 29.75 26Z" fill="#FEFFFF"/>
<defs>
<clipPath id="clip0_13_3531">
<rect width="24" height="24" fill="white" transform="translate(14 13)"/>
</clipPath>
<clipPath id="clip1_13_3531">
<rect width="24" height="24" fill="white" transform="translate(14 13)"/>
</clipPath>
</defs>
</svg>
