<svg width="127" height="25" viewBox="0 0 127 25" fill="none" xmlns="http://www.w3.org/2000/svg">
<g clip-path="url(#clip0_13_3520)">
<path d="M85.0021 21.0006C86.6367 21.0006 88.2714 20.3717 89.5287 19.2401L91.7921 21.6294C90.0318 23.3899 87.6427 24.396 85.1279 24.2702C79.721 24.2702 76.0743 20.6234 76.0743 15.719C75.9486 11.0662 79.5952 7.29358 84.2476 7.16783C84.3733 7.16783 84.4992 7.16783 84.6249 7.16783C90.0318 7.16783 93.1754 11.3177 92.9239 17.1023H79.9724C80.3496 19.6173 82.613 21.2521 85.0021 21.0006ZM88.9001 14.3357C88.7743 12.0722 86.8881 10.3116 84.6249 10.4374C82.2358 10.3116 80.2239 11.9464 79.9724 14.3357H88.9001Z" fill="#072F35"/>
<path d="M0 20.875L9.93367 10.8148H0.251485V7.67102H14.4604V10.9406L4.52674 21.0008H14.5861V24.1447H0V20.875Z" fill="#072F35"/>
<path d="M26.4061 21.0008C28.0408 21.0008 29.6754 20.3719 30.9329 19.2401L33.1963 21.6294C31.4358 23.5158 28.9209 24.5219 26.4061 24.396C20.8734 24.396 17.3527 20.7491 17.3527 15.8449C17.2269 11.192 20.8734 7.41946 25.526 7.29371C25.6517 7.29371 25.7774 7.29371 25.9032 7.29371C31.3101 7.29371 34.4536 11.4435 34.0764 17.2282H21.3764C21.7536 19.6175 24.017 21.2522 26.4061 21.0008ZM30.3042 14.3358C30.1785 12.0723 28.2923 10.3118 26.0289 10.4375C23.7655 10.3118 21.7536 11.9465 21.3764 14.3358H30.3042Z" fill="#072F35"/>
<path d="M55.5782 15.8448C55.3267 11.3177 58.8476 7.41939 63.3742 7.29364C63.5 7.29364 63.6259 7.29364 63.7516 7.29364C65.8891 7.29364 67.901 8.1739 69.1585 9.80869V0H72.6793V24.0188H69.1585V21.7552C67.7753 23.3899 65.7634 24.396 63.6257 24.396C59.0991 24.396 55.3267 20.6234 55.4525 16.0963C55.5782 15.9706 55.5782 15.8448 55.5782 15.8448ZM69.41 15.8448C69.41 12.9525 67.0209 10.689 64.2546 10.689C61.3625 10.689 59.0991 13.0783 59.0991 15.8448C59.0991 18.737 61.4882 21.0006 64.2546 21.0006C67.1466 21.0006 69.41 18.737 69.41 15.8448Z" fill="#072F35"/>
<path d="M95.0616 20.6232L98.2051 18.8628C99.0852 20.3718 100.72 21.2521 102.355 21.2521C104.367 21.2521 105.372 20.246 105.372 19.1142C105.372 17.9825 103.486 17.4795 101.349 17.1022C98.5823 16.4735 95.6902 15.5932 95.6902 12.1979C95.6902 9.55706 98.2051 7.16778 102.103 7.16778C104.744 7.04203 107.259 8.17379 108.767 10.3116L105.875 12.0721C104.995 10.8146 103.612 10.1858 102.229 10.1858C100.343 10.1858 99.4626 11.0661 99.4626 12.1979C99.4626 13.3297 100.971 13.7069 103.361 14.2099C106.127 14.8387 109.145 15.7189 109.145 19.1142C109.145 21.3778 107.133 24.3958 102.48 24.3958C99.3369 24.6474 96.4446 23.1383 95.0616 20.6232Z" fill="#072F35"/>
<path d="M117.946 16.7251L115.18 19.7431V24.0188H111.659V0H115.18V15.7191L122.599 7.54514H126.874L120.461 14.5873L127 24.0188H123.102L117.946 16.7251Z" fill="#072F35"/>
<path d="M45.1416 7.29371C40.9921 7.29371 37.4713 10.0603 37.4713 14.4616V24.1445H40.9921V14.9646C40.7406 12.8268 42.2496 10.9405 44.3872 10.689C44.6387 10.689 44.8902 10.689 45.1416 10.689C47.7822 10.689 49.0397 12.3238 49.0397 14.9646V24.1445H52.8119V14.4616C52.8119 9.9345 49.2912 7.29371 45.1416 7.29371Z" fill="#072F35"/>
</g>
<defs>
<clipPath id="clip0_13_3520">
<rect width="126.374" height="24.3026" fill="white" transform="scale(1.00496)"/>
</clipPath>
</defs>
</svg>
