<svg width="98" height="25" viewBox="0 0 98 25" fill="none" xmlns="http://www.w3.org/2000/svg">
<g opacity="0.5" clip-path="url(#clip0_13_3508)">
<path d="M30.8958 19.3866L32.0918 16.5911C33.4014 17.5609 35.1094 18.0742 36.8178 18.0742C38.0706 18.0742 38.8677 17.5895 38.8677 16.848C38.8391 14.7941 31.3229 16.3915 31.2657 11.2277C31.2371 8.60333 33.572 6.57801 36.875 6.57801C38.8391 6.57801 40.804 7.0631 42.1988 8.17581L41.0812 11.0309C39.7978 10.2056 38.2127 9.63029 36.704 9.63029C35.679 9.63029 34.9954 10.115 34.9954 10.743C35.024 12.7683 42.5978 11.6556 42.6831 16.5911C42.6831 19.2727 40.405 21.1555 37.1592 21.1555C34.768 21.1555 32.5757 20.5851 30.8954 19.3866H30.8958ZM78.5189 15.5789C78.217 16.1153 77.7778 16.5617 77.2465 16.8725C76.7151 17.1831 76.1107 17.3469 75.4952 17.347C73.5768 17.347 72.0219 15.7888 72.0219 13.8667C72.0219 11.9447 73.5768 10.3865 75.4952 10.3865C76.1107 10.3865 76.7151 10.5504 77.2465 10.861C77.7778 11.1717 78.217 11.6182 78.5189 12.1546L81.8439 10.3089C80.5986 8.08312 78.2228 6.57801 75.4952 6.57801C71.4776 6.57801 68.2208 9.84096 68.2208 13.8667C68.2208 17.8921 71.4776 21.1555 75.4952 21.1555C78.2228 21.1555 80.5986 19.6504 81.8439 17.4246L78.5189 15.5789ZM44.8408 20.8701H48.9976V0.510576H44.8412L44.8408 20.8701ZM83.9432 0.510576V20.8701H88.1001V14.7704L93.0257 20.8701H98.3391L92.0751 13.6238L97.8833 6.86221H92.7979L88.1001 12.4837V0.510576H83.9432ZM61.8042 6.86302V8.51799C61.121 7.3767 59.4411 6.57801 57.676 6.57801C54.0315 6.57801 51.156 9.80176 51.156 13.8525C51.156 17.9031 54.0315 21.1555 57.676 21.1555C59.4411 21.1555 61.121 20.3568 61.8042 19.2155V20.8701H65.961V6.86302H61.8042ZM61.8042 15.6071C61.2064 16.6054 59.9536 17.3466 58.5587 17.3466C56.64 17.3466 55.085 15.7888 55.085 13.8667C55.085 11.9447 56.64 10.3865 58.5587 10.3865C59.9536 10.3865 61.2064 11.1566 61.8042 12.1832V15.6071Z" fill="#072F35"/>
<path d="M8.94331 0.0606118C7.59623 0.0606118 6.50434 1.15494 6.50434 2.50449C6.50403 2.8251 6.56685 3.14264 6.68925 3.43897C6.81165 3.7353 6.9912 4.00461 7.21769 4.23155C7.44417 4.45849 7.71313 4.6386 8.00921 4.76159C8.30529 4.88458 8.62271 4.94804 8.94331 4.94836H11.3827V2.50449C11.3833 1.85694 11.1265 1.2357 10.6691 0.777396C10.2116 0.319092 9.59086 0.0612612 8.94331 0.0606118ZM8.94331 6.57762H2.43898C1.09189 6.57762 0 7.67194 0 9.02189C0 10.3714 1.09189 11.4658 2.43898 11.4658H8.94373C10.2904 11.4658 11.3827 10.3714 11.3827 9.02189C11.3827 7.67194 10.2904 6.57762 8.94331 6.57762Z" fill="#2FBDEE"/>
<path d="M24.3914 9.02189C24.3914 7.67194 23.2991 6.57762 21.952 6.57762C20.6049 6.57762 19.5131 7.67194 19.5131 9.02189V11.4658H21.952C22.5996 11.4651 23.2203 11.2073 23.6778 10.749C24.1353 10.2907 24.3919 9.66944 24.3914 9.02189ZM17.8871 9.02189V2.50449C17.8876 1.85694 17.6309 1.2357 17.1734 0.777396C16.716 0.319092 16.0952 0.0612612 15.4477 0.0606118C14.1006 0.0606118 13.0087 1.15494 13.0087 2.50449V9.02149C13.0087 10.3718 14.1006 11.4662 15.4477 11.4662C16.0952 11.4655 16.716 11.2077 17.1734 10.7494C17.6309 10.2911 17.8876 9.66985 17.8871 9.0223" fill="#29AD72"/>
<path d="M15.4477 24.5002C16.0952 24.4996 16.716 24.2418 17.1734 23.7834C17.6309 23.3252 17.8876 22.7039 17.8871 22.0564C17.8876 21.4088 17.6309 20.7876 17.1734 20.3292C16.716 19.871 16.0952 19.6131 15.4477 19.6125H13.0087V22.0564C13.0087 23.4059 14.1006 24.5002 15.4477 24.5002ZM15.4477 17.9832H21.9524C23.2991 17.9832 24.3914 16.8889 24.3914 15.539C24.3919 14.8914 24.1353 14.2702 23.6778 13.8118C23.2203 13.3536 22.5996 13.0957 21.952 13.0951H15.4477C14.1006 13.0951 13.0087 14.1894 13.0087 15.539C13.0083 15.8595 13.0713 16.1771 13.1937 16.4734C13.316 16.7698 13.4956 17.0391 13.7221 17.266C13.9486 17.4929 14.2175 17.673 14.5136 17.796C14.8097 17.919 15.1271 17.9825 15.4477 17.9828" fill="#E9A929"/>
<path d="M1.23065e-06 15.539C-0.00032067 15.8595 0.06251 16.1771 0.184905 16.4734C0.307302 16.7698 0.486865 17.0391 0.713345 17.266C0.939825 17.4929 1.20878 17.673 1.50487 17.796C1.80096 17.919 2.11837 17.9825 2.43898 17.9828C3.08652 17.9821 3.70729 17.7243 4.16476 17.266C4.62221 16.8077 4.8789 16.1865 4.87836 15.539V13.0951H2.43898C1.09189 13.0951 1.23065e-06 14.1894 1.23065e-06 15.539ZM6.50434 15.539V22.056C6.50434 23.4059 7.59623 24.5002 8.94331 24.5002C9.59086 24.4996 10.2116 24.2418 10.6691 23.7834C11.1265 23.3252 11.3833 22.7039 11.3827 22.0564V15.539C11.383 15.2183 11.3202 14.9007 11.1978 14.6044C11.0754 14.308 10.8957 14.0387 10.6693 13.8117C10.4427 13.5848 10.1737 13.4047 9.87752 13.2817C9.58142 13.1588 9.26397 13.0954 8.94331 13.0951C7.59623 13.0951 6.50434 14.1894 6.50434 15.539Z" fill="#DC1C50"/>
</g>
<defs>
<clipPath id="clip0_13_3508">
<rect width="97.2105" height="24.3026" fill="white" transform="scale(1.00812)"/>
</clipPath>
</defs>
</svg>
