<svg width="21" height="18" viewBox="0 0 21 18" fill="none" xmlns="http://www.w3.org/2000/svg">
<path d="M14.9358 0C13.975 0.0149444 13.0352 0.28315 12.2112 0.777532C11.3872 1.27191 10.7083 1.97496 10.243 2.81569C9.77767 1.97496 9.09874 1.27191 8.27477 0.777532C7.4508 0.28315 6.51097 0.0149444 5.55018 0C4.01857 0.0665447 2.57554 0.736562 1.53636 1.86367C0.497183 2.99078 -0.0536768 4.48336 0.00413062 6.01533C0.00413062 9.89501 4.08773 14.1322 7.51263 17.005C8.27732 17.6476 9.24415 17.9999 10.243 17.9999C11.2418 17.9999 12.2087 17.6476 12.9734 17.005C16.3983 14.1322 20.4819 9.89501 20.4819 6.01533C20.5397 4.48336 19.9888 2.99078 18.9496 1.86367C17.9104 0.736562 16.4674 0.0665447 14.9358 0Z" fill="#A80000"/>
</svg>
