<svg width="61" height="25" viewBox="0 0 61 25" fill="none" xmlns="http://www.w3.org/2000/svg">
<path fill-rule="evenodd" clip-rule="evenodd" d="M0 0.0278857C0 0.0278857 2.40219 -0.282343 4.00366 1.16946C4.99169 2.06528 5.2795 3.49268 5.2795 3.49268L8.5503 16.5223L11.2695 5.85687C11.535 4.72314 12.0118 3.32188 12.767 2.37377C13.7301 1.16684 15.6864 1.09103 15.8952 1.09103C16.1031 1.09103 18.0594 1.16684 19.0217 2.37377C19.7777 3.32188 20.2546 4.72314 20.52 5.85687L23.2393 16.5223L26.5092 3.49181C26.5092 3.49181 26.7979 2.06441 27.7859 1.16858C29.3874 -0.282343 31.7887 0.0278857 31.7887 0.0278857L25.5263 24.3799C25.5263 24.3799 23.4609 24.5333 22.4274 23.9913C21.0699 23.2802 20.4238 22.7303 19.6016 19.4172L19.5165 19.0729C19.2167 17.8538 18.7579 15.9445 18.2931 14.0073L18.1539 13.4261L18.0147 12.8475C17.3455 10.0606 16.7286 7.49428 16.6298 7.16836C16.537 6.86249 16.427 6.13398 15.8952 6.13398C15.3737 6.13398 15.2543 6.86337 15.1589 7.16836C15.0472 7.52739 14.3084 10.6149 13.5643 13.7163L13.4251 14.2975C13.0449 15.8903 12.6609 17.4821 12.273 19.0729L12.1871 19.4172C11.3658 22.7303 10.7197 23.2802 9.3622 23.9913C8.32778 24.5333 6.26237 24.3799 6.26237 24.3799L0 0.0278857ZM37.8011 4.35714V5.22421L37.8028 5.22334V19.7134C37.7908 22.6876 37.4823 23.3473 36.142 24.0322C35.0999 24.5638 33.507 24.3625 33.507 24.3625V8.13216C33.507 7.31738 33.7776 6.78319 34.776 6.30391C35.3714 6.01721 35.9272 5.79848 36.5046 5.47344C37.4076 4.96975 37.8011 4.35714 37.8011 4.35714ZM39.5211 0.108928C39.5211 0.108928 42.852 -0.477542 44.5016 1.0736C45.5566 2.06703 46.7371 3.85345 46.7371 3.85345L49.6411 8.18009C49.782 8.40492 49.9658 8.65066 50.2597 8.65066C50.5543 8.65066 50.7391 8.40492 50.88 8.18009L53.7839 3.85345C53.7839 3.85345 54.9644 2.06703 56.0194 1.0736C57.669 -0.477542 60.9999 0.108928 60.9999 0.108928L53.1078 12.2418L60.9785 24.3381L60.951 24.3416C60.6245 24.3808 57.4834 24.7102 55.9206 23.2384C54.8647 22.2467 53.7839 20.6311 53.7839 20.6311L50.88 16.3053C50.7391 16.0787 50.5543 15.8347 50.2605 15.8347C49.9658 15.8347 49.782 16.0787 49.6411 16.3053L46.7371 20.6311C46.7371 20.6311 45.7147 22.2467 44.6597 23.2384C43.0101 24.7921 39.5417 24.3381 39.5417 24.3381L47.4124 12.2427L39.5211 0.108928ZM37.7684 0H37.8028C37.8028 1.66443 37.643 2.65088 36.6111 3.41861C36.1295 3.77789 35.6016 4.06873 35.0423 4.28307C34.1247 4.62205 33.507 5.22857 33.507 5.22857C33.507 2.19948 33.9624 1.10323 35.1824 0.453142C35.9255 0.0592571 37.1344 0.00522857 37.6052 0L37.7684 0Z" fill="black"/>
</svg>
